<?xml version="1.0" encoding="UTF-8"?>
<svg width="34px" height="34px" viewBox="0 0 34 34" version="1.1" xmlns="http://www.w3.org/2000/svg" xmlns:xlink="http://www.w3.org/1999/xlink">
    <!-- Generator: Sketch 43.2 (39069) - http://www.bohemiancoding.com/sketch -->
    <title>Group 4</title>
    <desc>Created with Sketch.</desc>
    <defs></defs>
    <g id="Page-1" stroke="none" stroke-width="1" fill="none" fill-rule="evenodd">
        <g id="iPhone-7" transform="translate(-216.000000, -618.000000)">
            <g id="bottom" transform="translate(-12.000000, 606.000000)">
                <g id="Group-4" transform="translate(228.000000, 12.000000)">
                    <path d="M29.0195312,27.09375 L28.6210937,26.5625 C28.6210937,27.2708555 24.3710937,27.2708555 24.3710937,26.5625 L23.9726562,27.09375 C19.3811953,27.948 20.4766328,26.5779062 18.9921875,34 L34,34 C32.5162187,26.5808945 33.6058125,27.9470039 29.0195312,27.09375" id="Fill-2892" fill="#F93B2A"></path>
                    <path d="M29.0195312,27.09375 C33.6061445,27.9471367 32.5163516,26.5818242 34,34 L32.9375,34 C32.0497812,28.6782695 33.1406367,27.9068945 28.8539141,27.2666055 L29.0195312,27.09375" id="Fill-2893" fill="#C21D0F"></path>
                    <polygon id="Fill-2894" fill="#EFC2A3" points="24.5039062 27.09375 28.4882812 27.09375 28.4882812 24.4375 24.5039062 24.4375"></polygon>
                    <polygon id="Fill-2895" fill="#E6AB91" points="27.9570312 27.09375 28.4882812 27.09375 28.4882812 24.4375 27.9570312 24.4375"></polygon>
                    <path d="M28.6210937,26.5625 C28.6210937,26.8558828 27.6696914,27.09375 26.4960938,27.09375 C25.3224961,27.09375 24.3710938,26.8558828 24.3710938,26.5625 L23.9726563,27.09375 L25.5,28.6875 L26.4960938,27.625 L27.4921875,28.6875 L29.0195312,27.09375 L28.6210937,26.5625" id="Fill-2896" fill="#E8ECF0"></path>
                    <path d="M29.0195312,27.09375 L28.6210937,26.5625 C28.6210937,26.6830273 28.4978437,26.7829687 28.2936445,26.8625234 L28.5750742,27.5575312 C28.9188594,27.1988047 28.8418281,27.2791562 29.0195312,27.09375" id="Fill-2897" fill="#D8DBE1"></path>
                    <path d="M29.6835937,21.25 C29.6835937,19.2508398 28.3551367,18.0625 26.4960937,18.0625 C24.7429688,18.0625 23.3205469,19.1502344 23.3085937,21.2221094 L23.3085937,21.25 C23.3085937,23.3436563 24.7386523,25.6328125 26.4960937,25.6328125 C28.258582,25.6328125 29.6835937,23.3351562 29.6835937,21.25" id="Fill-2898" fill="#EFC2A3"></path>
                    <path d="M26.4960938,18.0625 C26.3616875,18.0625 26.2292734,18.0689414 26.0991836,18.0816914 C27.7458594,18.2412656 28.8867188,19.3973984 28.8867188,21.25 C28.8867188,23.1754492 27.6716172,25.2819219 26.0977891,25.5933672 C26.2283438,25.6191992 26.3612227,25.6328125 26.4960938,25.6328125 C28.258582,25.6328125 29.6835938,23.3351562 29.6835938,21.25 C29.6835938,19.2508398 28.3551367,18.0625 26.4960938,18.0625" id="Fill-2899" fill="#E6AB91"></path>
                    <path d="M26.4960938,18.0625 C24.7433008,18.0625 23.3210781,19.1498359 23.3085937,21.2209805 C24.7215859,22.0390391 26.5583828,21.6608555 27.5200781,20.2798047 C27.9025781,21.0846484 28.7194414,21.6420625 29.6676563,21.6481055 C29.8385859,19.3511133 28.4352227,18.0625 26.4960938,18.0625" id="Fill-2900" fill="#474E5D"></path>
                    <path d="M29.6676563,21.6481055 C29.8385859,19.3511133 28.4352227,18.0625 26.4960938,18.0625 C26.3628164,18.0625 26.2316641,18.0695391 26.1026367,18.0820898 C27.8349766,18.251625 28.9883203,19.5178594 28.87875,21.5081875 C29.1256484,21.596375 29.3908086,21.6463789 29.6676563,21.6481055" id="Fill-2901" fill="#2E3544"></path>
                    <path d="M10.0273437,27.09375 L9.62890625,26.5625 C9.62890625,27.2708555 5.37890625,27.2708555 5.37890625,26.5625 L4.98046875,27.09375 C0.389007813,27.948 1.48444531,26.5779062 0,34 L15.0078125,34 C13.5240312,26.5808945 14.613625,27.9470039 10.0273437,27.09375" id="Fill-2902" fill="#24B3C9"></path>
                    <path d="M10.0273438,27.09375 C14.613957,27.9471367 13.5241641,26.5818242 15.0078125,34 L13.9453125,34 C13.0575938,28.6782695 14.1484492,27.9068945 9.86166016,27.2666055 L10.0273438,27.09375" id="Fill-2903" fill="#0399AF"></path>
                    <polygon id="Fill-2904" fill="#EFC2A3" points="5.51171875 27.09375 9.49609375 27.09375 9.49609375 24.4375 5.51171875 24.4375"></polygon>
                    <polygon id="Fill-2905" fill="#E6AB91" points="8.96484375 27.09375 9.49609375 27.09375 9.49609375 24.4375 8.96484375 24.4375"></polygon>
                    <path d="M9.62890625,26.5625 C9.62890625,26.8558828 8.67750391,27.09375 7.50390625,27.09375 C6.33030859,27.09375 5.37890625,26.8558828 5.37890625,26.5625 L4.98046875,27.09375 L6.5078125,28.6875 L7.50390625,27.625 L8.5,28.6875 L10.0273437,27.09375 L9.62890625,26.5625" id="Fill-2906" fill="#E8ECF0"></path>
                    <path d="M10.0273437,27.09375 L9.62890625,26.5625 C9.62890625,26.6830273 9.50565625,26.7829687 9.30145703,26.8625234 L9.58288672,27.5575312 C9.92667187,27.1988047 9.84964062,27.2791562 10.0273437,27.09375" id="Fill-2907" fill="#D8DBE1"></path>
                    <path d="M10.6914063,21.25 C10.6914063,19.2508398 9.36288281,18.0625 7.50390625,18.0625 C5.75078125,18.0625 4.32835937,19.1502344 4.31640625,21.2221094 L4.31640625,21.25 C4.31640625,23.3436563 5.74646484,25.6328125 7.50390625,25.6328125 C9.26632813,25.6328125 10.6914063,23.3351562 10.6914063,21.25" id="Fill-2908" fill="#EFC2A3"></path>
                    <path d="M7.50390625,18.0625 C7.3695,18.0625 7.23708594,18.0689414 7.1070625,18.0816914 C8.75367188,18.2412656 9.89453125,19.3973984 9.89453125,21.25 C9.89453125,23.1754492 8.67942969,25.2819219 7.10560156,25.5933672 C7.23608984,25.6191992 7.36903516,25.6328125 7.50390625,25.6328125 C9.26632813,25.6328125 10.6914063,23.3351562 10.6914063,21.25 C10.6914063,19.2508398 9.36288281,18.0625 7.50390625,18.0625" id="Fill-2909" fill="#E6AB91"></path>
                    <path d="M7.50390625,18.0625 C5.75111328,18.0625 4.32895703,19.1498359 4.31647266,21.2209805 C5.72939844,22.0390391 7.56619531,21.6608555 8.52789063,20.2798047 C8.91039062,21.0846484 9.72725391,21.6420625 10.6754688,21.6481055 C10.8463984,19.3511133 9.44296875,18.0625 7.50390625,18.0625" id="Fill-2910" fill="#474E5D"></path>
                    <path d="M10.6754688,21.6481055 C10.8463984,19.3511133 9.44296875,18.0625 7.50390625,18.0625 C7.37062891,18.0625 7.23947656,18.0695391 7.11044922,18.0820898 C8.84285547,18.251625 9.99613281,19.5178594 9.8865625,21.5081875 C10.1334609,21.596375 10.3986211,21.6463789 10.6754688,21.6481055" id="Fill-2911" fill="#2E3544"></path>
                    <path d="M23.375,6.375 C23.375,9.89585937 20.520793,12.75 17,12.75 C13.479207,12.75 10.625,9.89585937 10.625,6.375 C10.625,2.85414062 13.479207,0 17,0 C20.520793,0 23.375,2.85414062 23.375,6.375" id="Fill-2912" fill="#FFCA10"></path>
                    <path d="M22.3125,6.375 C22.3125,9.30902734 19.9340273,11.6875 17,11.6875 C14.0659727,11.6875 11.6875,9.30902734 11.6875,6.375 C11.6875,3.44097266 14.0659727,1.0625 17,1.0625 C19.9340273,1.0625 22.3125,3.44097266 22.3125,6.375" id="Fill-2913" fill="#FFA200"></path>
                    <path d="M11.953125,6.640625 C11.953125,3.70659766 14.3315977,1.328125 17.265625,1.328125 C18.6650039,1.328125 19.9341602,1.87332031 20.8829727,2.75765234 C19.9131758,1.71706641 18.5346484,1.0625 17,1.0625 C14.0659727,1.0625 11.6875,3.44097266 11.6875,6.375 C11.6875,7.90964844 12.3420664,9.28817578 13.3826523,10.2579727 C12.4983203,9.30916016 11.953125,8.04000391 11.953125,6.640625" id="Fill-2914" fill="#FF6C00"></path>
                    <path d="M16.8610117,10.359375 L16.8610117,9.47763281 C16.2879922,9.45910547 15.7153711,9.29548047 15.3881211,9.07786719 L15.6335586,8.22275391 C15.988168,8.43226562 16.4971055,8.62251953 17.0520625,8.62251953 C17.6246836,8.62251953 18.0156172,8.34115625 18.0156172,7.90440234 C18.0156172,7.49573828 17.6976641,7.231375 17.0246367,6.98640234 C16.0699805,6.640625 15.4518047,6.20460156 15.4518047,5.35911719 C15.4518047,4.57651953 15.9970664,3.97687109 16.9154648,3.81324609 L16.9154648,2.921875 L17.6610078,2.921875 L17.6610078,3.76735937 C18.2340273,3.78588672 18.6248945,3.92208594 18.9158867,4.06791406 L18.6704492,4.90376953 C18.4520391,4.80382813 18.052207,4.59504687 17.4336992,4.59504687 C16.7973281,4.59504687 16.5700859,4.92229687 16.5700859,5.23175 C16.5700859,5.60415625 16.8973359,5.81366797 17.6702383,6.12239062 C18.6885781,6.50435938 19.1431289,6.99523438 19.1431289,7.80439453 C19.1431289,8.57736328 18.6067656,9.25922266 17.6065547,9.42284766 L17.6065547,10.359375 L16.8610117,10.359375" id="Fill-2915" fill="#FF6C00"></path>
                    <path d="M16.5953867,10.09375 L16.5953867,9.21200781 C16.0223672,9.19348047 15.4497461,9.02985547 15.1224961,8.81217578 L15.3679336,7.95712891 C15.722543,8.16657422 16.2315469,8.35689453 16.7864375,8.35689453 C17.3590586,8.35689453 17.7499922,8.07553125 17.7499922,7.63877734 C17.7499922,7.23011328 17.4319727,6.96575 16.7590117,6.72071094 C15.8043555,6.375 15.1861797,5.93897656 15.1861797,5.09349219 C15.1861797,4.31089453 15.7314414,3.71124609 16.6498398,3.54762109 L16.6498398,2.65625 L17.3953828,2.65625 L17.3953828,3.50166797 C17.9684023,3.52026172 18.3592695,3.65646094 18.6502617,3.80228906 L18.4048242,4.63814453 C18.1864141,4.53820313 17.786582,4.32942187 17.1680742,4.32942187 C16.5317031,4.32942187 16.3044609,4.65667187 16.3044609,4.966125 C16.3044609,5.33853125 16.6317109,5.54804297 17.4046133,5.85676562 C18.4229531,6.23873438 18.8775039,6.72960938 18.8775039,7.53883594 C18.8775039,8.31173828 18.3411406,8.99359766 17.3409297,9.15722266 L17.3409297,10.09375 L16.5953867,10.09375" id="Fill-2916" fill="#FFCA10"></path>
                    <polyline id="Fill-2917" fill="#24B3C9" points="11.2447695 13.4155898 8.67205859 17.4456523 7.7764375 16.8739609 10.3492148 12.8438984 9.28578516 12.1649609 11.9404414 11.3386016 12.3082656 14.0945273 11.2447695 13.4155898"></polyline>
                    <polyline id="Fill-2918" fill="#FFCA10" points="12.5021719 17.3696836 15.0749492 13.3396211 14.1793945 12.7679297 11.6066172 16.7979922 10.5431211 16.1189883 10.9109453 18.8749141 13.565668 18.0486211 12.5021719 17.3696836"></polyline>
                    <polyline id="Fill-2919" fill="#24B3C9" points="22.3933828 16.7979922 19.8206055 12.7679297 18.9250508 13.3396211 21.4978281 17.3696836 20.434332 18.0486211 23.0890547 18.8749141 23.4568789 16.1189883 22.3933828 16.7979922"></polyline>
                    <polyline id="Fill-2920" fill="#FFCA10" points="23.6507852 12.8438984 26.2235625 16.8739609 25.3279414 17.4456523 22.7552305 13.4155898 21.6917344 14.0945273 22.0595586 11.3386016 24.7142813 12.1649609 23.6507852 12.8438984"></polyline>
                </g>
            </g>
        </g>
    </g>
</svg>