<?xml version="1.0" encoding="UTF-8"?>
<svg width="38px" height="38px" viewBox="0 0 38 38" version="1.1" xmlns="http://www.w3.org/2000/svg" xmlns:xlink="http://www.w3.org/1999/xlink">
    <!-- Generator: Sketch 43.2 (39069) - http://www.bohemiancoding.com/sketch -->
    <title>Group 3</title>
    <desc>Created with Sketch.</desc>
    <defs></defs>
    <g id="Page-1" stroke="none" stroke-width="1" fill="none" fill-rule="evenodd">
        <g id="iPhone-7" transform="translate(-24.000000, -618.000000)">
            <g id="bottom" transform="translate(-12.000000, 606.000000)">
                <g id="Group-3" transform="translate(36.000000, 12.000000)">
                    <polyline id="Fill-1314" fill="#24B3C9" points="16.3598164 17.6334844 4.39419531 5.66786328 10.0620586 0 22.0276797 11.9655469 16.3598164 17.6334844"></polyline>
                    <path d="M15.10025,10.7060547 C13.8829141,11.9233906 12.0502305,12.064332 11.0067891,11.0208906 C9.96334766,9.97752344 10.1042891,8.14476562 11.321625,6.92742969 C12.5390352,5.71009375 14.3717188,5.56915234 15.4150859,6.61251953 C16.4586016,7.65596094 16.3175859,9.48871875 15.10025,10.7060547" id="Fill-1315" fill="#0399AF"></path>
                    <path d="M11.377957,10.2899844 L11.7699062,9.89803516 C11.5234258,9.63507812 11.3415898,9.30777344 11.2928281,9.06552344 L11.7820781,8.79455078 C11.8465742,9.04533594 11.9882578,9.35616406 12.2349609,9.60279297 C12.4895312,9.85736328 12.7883359,9.906125 12.9825664,9.71189453 C13.1641797,9.53028125 13.1403555,9.27140625 12.9501328,8.86327734 C12.679457,8.2851875 12.5984844,7.81657031 12.9743281,7.44072656 C13.3221914,7.09286328 13.8311836,7.06866797 14.3121211,7.40413672 L14.7084492,7.00795703 L15.0398359,7.33934375 L14.6639922,7.7151875 C14.9104727,7.97814453 15.0237305,8.21245312 15.0882266,8.40668359 L14.6075117,8.66912109 C14.5548906,8.52758594 14.4699844,8.25705859 14.1950039,7.98207812 C13.9121562,7.69923047 13.6656016,7.7436875 13.528,7.88121484 C13.3624922,8.04679687 13.4148164,8.28541016 13.6211445,8.76619922 C13.9040664,9.38874609 13.8879609,9.80904687 13.5282227,10.1687109 C13.1845898,10.5123437 12.6430156,10.5769883 12.1257109,10.2050781 L11.7093437,10.6214453 L11.377957,10.2899844" id="Fill-1316" fill="#24B3C9"></path>
                    <path d="M22.0276797,11.9655469 C21.8308516,11.768793 10.2982969,0.236164062 10.0620586,0 C9.91577344,0.146359375 4.60942969,5.45262891 4.39419531,5.66786328 C4.63035937,5.90410156 16.1629883,17.4366563 16.3598164,17.6334844 C16.5061758,17.4870508 21.8124453,12.1807813 22.0276797,11.9655469 Z M17.9079453,15.4555352 C16.9880039,14.8010742 15.7354883,14.7972148 14.8116133,15.4555352 L6.57214453,7.21606641 C7.23053906,6.29219141 7.22660547,5.03967578 6.57214453,4.11973437 L8.51392969,2.177875 C9.43394531,2.83241016 10.6863867,2.83626953 11.6102617,2.177875 L19.8498047,10.417418 C19.1914102,11.341293 19.1953437,12.5937344 19.8497305,13.51375 L17.9079453,15.4555352 L17.9079453,15.4555352 Z" id="Fill-1317" fill="#0399AF"></path>
                    <path d="M9.27489453,4.88069922 C9.101,5.05459375 8.81904297,5.05459375 8.64514844,4.88069922 C8.47125391,4.70673047 8.47125391,4.42484766 8.64514844,4.25087891 C8.81904297,4.07698437 9.101,4.07698437 9.27489453,4.25087891 C9.44886328,4.42484766 9.44886328,4.70673047 9.27489453,4.88069922" id="Fill-1318" fill="#0399AF"></path>
                    <path d="M17.7373906,13.3431953 C17.5634961,13.5170898 17.2815391,13.5170898 17.1076445,13.3431953 C16.93375,13.1692266 16.93375,12.8872695 17.1076445,12.713375 C17.2815391,12.5394805 17.5634961,12.5394805 17.7373906,12.713375 C17.9112852,12.8872695 17.9112852,13.1692266 17.7373906,13.3431953" id="Fill-1319" fill="#0399AF"></path>
                    <polyline id="Fill-1320" fill="#24B3C9" points="16.3598164 18.2272344 0.070953125 13.6421484 2.24281641 5.92636719 18.5316797 10.5114531 16.3598164 18.2272344"></polyline>
                    <path d="M11.8732188,12.8007305 C11.4067539,14.4579609 9.87710547,15.477207 8.45663281,15.0773906 C7.03623438,14.6775 6.26294922,13.0100273 6.72933984,11.3528711 C7.19580469,9.69564063 8.72545313,8.67639453 10.1459258,9.07621094 C11.5663242,9.47602734 12.3396836,11.1435742 11.8732188,12.8007305" id="Fill-1321" fill="#0399AF"></path>
                    <path d="M8.42301172,14.2583125 L8.57315625,13.7246797 C8.22952344,13.615875 7.91090234,13.4193437 7.74992188,13.2318672 L8.044125,12.7561992 C8.22299219,12.9434531 8.49864063,13.1452539 8.83440625,13.2398086 C9.18100781,13.337332 9.46541406,13.2336484 9.53985547,12.9693555 C9.60947266,12.7219844 9.46207422,12.5079375 9.09654687,12.2449805 C8.57775781,11.8731445 8.27791406,11.5039062 8.42197266,10.9923164 C8.55526953,10.5187266 8.98737109,10.2487187 9.57102734,10.3061641 L9.72280469,9.76674219 L10.1739805,9.89373047 L10.0299961,10.4053203 C10.3736289,10.5141992 10.5869336,10.6631563 10.7381914,10.8009805 L10.4472539,11.2649961 C10.3321406,11.1673242 10.1258125,10.9728711 9.75145313,10.8675547 C9.36633203,10.7591211 9.17306641,10.9184688 9.12037109,11.1057227 C9.05691406,11.3310508 9.21923047,11.5136289 9.63441016,11.8321016 C10.1856328,12.2367422 10.377043,12.61125 10.2392188,13.1009453 C10.1076289,13.5686719 9.66684375,13.8898906 9.03368359,13.8185664 L8.87411328,14.3853008 L8.42301172,14.2583125" id="Fill-1322" fill="#24B3C9"></path>
                    <path d="M18.5316797,10.5114531 C18.26375,10.4360469 2.56433203,6.01683984 2.24281641,5.92636719 C2.18670703,6.12564453 0.153410156,13.3491328 0.070953125,13.6421484 C0.392394531,13.7326211 16.0918867,18.1518281 16.3598164,18.2272344 C16.4158516,18.027957 18.4491484,10.8044688 18.5316797,10.5114531 Z M16.6450391,15.5704258 C15.5225547,15.4494492 14.428125,16.0585625 13.944293,17.0846367 L2.72776172,13.9273711 C2.85022266,12.7996172 2.23428125,11.7089727 1.21347656,11.226625 L1.95759375,8.58317578 C3.08007812,8.70415234 4.17443359,8.09503906 4.65826562,7.06889063 L15.8747969,10.2262305 C15.7524102,11.3539844 16.3683516,12.4446289 17.3891562,12.9269766 L16.6450391,15.5704258 L16.6450391,15.5704258 Z" id="Fill-1323" fill="#0399AF"></path>
                    <path d="M3.94309375,10.5685273 C3.87644531,10.8052852 3.63055859,10.9431836 3.39380078,10.8765352 C3.15704297,10.8098867 3.01914453,10.5639258 3.08579297,10.3272422 C3.15244141,10.0904844 3.39840234,9.95258594 3.63516016,10.0192344 C3.87184375,10.0858828 4.00974219,10.3317695 3.94309375,10.5685273" id="Fill-1324" fill="#0399AF"></path>
                    <path d="M15.4631797,13.811293 C15.3965312,14.0479766 15.1506445,14.185875 14.9138867,14.1192266 C14.6771289,14.0526523 14.5392305,13.8066914 14.6058789,13.5699336 C14.6725273,13.3331758 14.9184883,13.1953516 15.1552461,13.2619258 C15.3919297,13.3285742 15.5298281,13.5745352 15.4631797,13.811293" id="Fill-1325" fill="#0399AF"></path>
                    <path d="M36.21875,38 L1.78125,38 C1.20739063,38 0,37.5347969 0,36.9609375 L0,35.625 L38,35.625 L38,36.9609375 C38,37.5347969 36.7926094,38 36.21875,38" id="Fill-1326" fill="#D8DBE1"></path>
                    <path d="M38,36.9609375 C38,37.5347969 36.7926094,38 36.21875,38 L1.78125,38 C1.20739063,38 0,37.5347969 0,36.9609375 L38,36.9609375" id="Fill-1327" fill="#BFC2C8"></path>
                    <path d="M21.5976563,36.515625 L16.4023437,36.515625 C15.9104961,36.515625 15.5117187,36.1168477 15.5117187,35.625 L22.4882813,35.625 C22.4882813,36.1168477 22.0895039,36.515625 21.5976563,36.515625" id="Fill-1328" fill="#BFC2C8"></path>
                    <path d="M33.84375,35.625 L4.15625,35.625 L4.15625,16.328125 C4.15625,15.6722539 4.68787891,15.140625 5.34375,15.140625 L32.65625,15.140625 C33.3121211,15.140625 33.84375,15.6722539 33.84375,16.328125 L33.84375,35.625" id="Fill-1329" fill="#474E5D"></path>
                    <polygon id="Fill-1330" fill="#24B3C9" points="5.26953125 34.5117187 32.7304687 34.5117187 32.7304687 16.2539062 5.26953125 16.2539062"></polygon>
                    <path d="M14.25,23.453125 L5.26953125,23.453125 L5.26953125,32.359375 L14.25,32.359375 C14.5778984,32.359375 14.84375,32.0935234 14.84375,31.765625 L14.84375,24.046875 C14.84375,23.7189766 14.5778984,23.453125 14.25,23.453125" id="Fill-1331" fill="#0399AF"></path>
                    <path d="M14.25,23.453125 C14.25,23.1252266 13.9841484,22.859375 13.65625,22.859375 L0.59375,22.859375 C0.265851562,22.859375 0,23.1252266 0,23.453125 L0,31.171875 C0,31.4997734 0.265851562,31.765625 0.59375,31.765625 L13.65625,31.765625 C13.9841484,31.765625 14.25,31.4997734 14.25,31.171875 L14.25,23.453125" id="Fill-1332" fill="#F93B2A"></path>
                    <path d="M9.75976563,28.5742187 L7.60742187,28.5742187 C7.52548438,28.5742187 7.45898437,28.5077187 7.45898437,28.4257812 L7.45898437,27.9804687 C7.45898437,27.8985312 7.52548438,27.8320312 7.60742187,27.8320312 L9.75976563,27.8320312 C9.84170313,27.8320312 9.90820313,27.8985312 9.90820313,27.9804687 L9.90820313,28.4257812 C9.90820313,28.5077187 9.84170313,28.5742187 9.75976563,28.5742187" id="Fill-1333" fill="#E8ECF0"></path>
                    <path d="M12.8769531,28.5742187 L10.7246094,28.5742187 C10.6426719,28.5742187 10.5761719,28.5077187 10.5761719,28.4257812 L10.5761719,27.9804687 C10.5761719,27.8985312 10.6426719,27.8320312 10.7246094,27.8320312 L12.8769531,27.8320312 C12.9588906,27.8320312 13.0253906,27.8985312 13.0253906,27.9804687 L13.0253906,28.4257812 C13.0253906,28.5077187 12.9588906,28.5742187 12.8769531,28.5742187" id="Fill-1334" fill="#E8ECF0"></path>
                    <path d="M6.64257812,28.5742187 L4.49023437,28.5742187 C4.40829688,28.5742187 4.34179687,28.5077187 4.34179687,28.4257812 L4.34179687,27.9804687 C4.34179687,27.8985312 4.40829688,27.8320312 4.49023437,27.8320312 L6.64257812,27.8320312 C6.72451563,27.8320312 6.79101562,27.8985312 6.79101562,27.9804687 L6.79101562,28.4257812 C6.79101562,28.5077187 6.72451563,28.5742187 6.64257812,28.5742187" id="Fill-1335" fill="#E8ECF0"></path>
                    <path d="M3.52539062,28.5742187 L1.37304688,28.5742187 C1.29110938,28.5742187 1.22460938,28.5077187 1.22460938,28.4257812 L1.22460938,27.9804687 C1.22460938,27.8985312 1.29110938,27.8320312 1.37304688,27.8320312 L3.52539062,27.8320312 C3.60732813,27.8320312 3.67382812,27.8985312 3.67382812,27.9804687 L3.67382812,28.4257812 C3.67382812,28.5077187 3.60732813,28.5742187 3.52539062,28.5742187" id="Fill-1336" fill="#E8ECF0"></path>
                    <path d="M3.63671875,26.6445312 L1.55859375,26.6445312 C1.39464453,26.6445312 1.26171875,26.5116055 1.26171875,26.3476562 L1.26171875,24.8632812 C1.26171875,24.699332 1.39464453,24.5664062 1.55859375,24.5664062 L3.63671875,24.5664062 C3.80066797,24.5664062 3.93359375,24.699332 3.93359375,24.8632812 L3.93359375,26.3476562 C3.93359375,26.5116055 3.80066797,26.6445312 3.63671875,26.6445312" id="Fill-1337" fill="#FEE79B"></path>
                    <path d="M32.7304687,16.2539062 L14.25,16.2539062 L14.25,19.59375 C14.25,20.2495469 14.7817031,20.78125 15.4375,20.78125 L19,20.78125 L19,32.0625 L29.6875,32.0625 L29.6875,18.6436016 C30.9157461,18.8930508 32.0843203,18.3514766 32.7304687,17.4114219 L32.7304687,16.2539062" id="Fill-1338" fill="#0399AF"></path>
                    <path d="M33.25,15.734375 C33.25,15.5800742 33.2381992,15.4285937 33.2155625,15.2806758 C33.048793,15.1915391 32.8585703,15.140625 32.65625,15.140625 C32.65625,15.5344297 32.5789141,15.9100508 32.4396055,16.2539062 L32.7304687,16.2539062 L32.7304687,17.4114219 C33.0565117,16.9370898 33.25,16.3616719 33.25,15.734375" id="Fill-1339" fill="#2E3544"></path>
                    <path d="M32.65625,15.140625 C32.65625,16.7801914 31.3270664,18.109375 29.6875,18.109375 C28.0479336,18.109375 26.71875,16.7801914 26.71875,15.140625 C26.71875,13.5010586 28.0479336,12.171875 29.6875,12.171875 C31.3270664,12.171875 32.65625,13.5010586 32.65625,15.140625" id="Fill-1340" fill="#FFCA10"></path>
                    <path d="M32.1614336,15.140625 C32.1614336,16.506918 31.0538672,17.6145586 29.6875,17.6145586 C28.321207,17.6145586 27.2135664,16.506918 27.2135664,15.140625 C27.2135664,13.774332 28.321207,12.6666914 29.6875,12.6666914 C31.0538672,12.6666914 32.1614336,13.774332 32.1614336,15.140625" id="Fill-1341" fill="#FFA200"></path>
                    <path d="M27.3372148,15.2643477 C27.3372148,13.8979805 28.4448555,12.7903398 29.8112227,12.7903398 C30.4628633,12.7903398 31.0538672,13.0442422 31.4957656,13.456082 C31.0441445,12.9715078 30.4021523,12.6666914 29.6875,12.6666914 C28.321207,12.6666914 27.2135664,13.774332 27.2135664,15.140625 C27.2135664,15.8552773 27.5183828,16.4972695 28.002957,16.9488906 C27.5911172,16.5069922 27.3372148,15.9159883 27.3372148,15.2643477" id="Fill-1342" fill="#FF6C00"></path>
                    <path d="M29.6227812,16.9960938 L29.6227812,16.5854414 C29.3559648,16.576832 29.0892227,16.5006836 28.9368516,16.3993008 L29.0511484,16.0011172 C29.2162852,16.0986406 29.4533398,16.1872578 29.7117695,16.1872578 C29.9784375,16.1872578 30.1604219,16.0562617 30.1604219,15.8528281 C30.1604219,15.6625313 30.0123555,15.5394766 29.6990039,15.4253281 C29.2544336,15.2643477 28.9665391,15.0612852 28.9665391,14.6675547 C28.9665391,14.3031406 29.2204414,14.0238555 29.6480898,13.9476328 L29.6480898,13.5325273 L29.9952852,13.5325273 L29.9952852,13.9262578 C30.2621758,13.9348672 30.4442344,13.9983242 30.5796836,14.0662344 L30.4653867,14.4555117 C30.363707,14.4089766 30.1775664,14.31175 29.8894492,14.31175 C29.593168,14.31175 29.4872578,14.4641211 29.4872578,14.6082539 C29.4872578,14.7816289 29.6397031,14.8792266 29.9996641,15.0229883 C30.4738477,15.2008906 30.6855195,15.4294844 30.6855195,15.806293 C30.6855195,16.1662539 30.4357734,16.4837617 29.9699766,16.5599844 L29.9699766,16.9960938 L29.6227812,16.9960938" id="Fill-1343" fill="#FF6C00"></path>
                    <path d="M29.4990586,16.8723711 L29.4990586,16.461793 C29.2322422,16.4531836 28.9655742,16.3769609 28.8131289,16.2755781 L28.9275,15.8773945 C29.0926367,15.9749922 29.3296172,16.0636094 29.5880469,16.0636094 C29.8547148,16.0636094 30.0367734,15.9325391 30.0367734,15.7291055 C30.0367734,15.5388086 29.8886328,15.4157539 29.5752813,15.3016055 C29.1307109,15.140625 28.8428164,14.9375625 28.8428164,14.543832 C28.8428164,14.179418 29.0967187,13.9001328 29.5244414,13.8239844 L29.5244414,13.4088789 L29.8716367,13.4088789 L29.8716367,13.8026094 C30.1384531,13.8112187 30.3205117,13.8746016 30.4559609,13.9425859 L30.3416641,14.3317891 C30.2399844,14.2852539 30.0538437,14.1880273 29.7658008,14.1880273 C29.4694453,14.1880273 29.3636094,14.3403984 29.3636094,14.4845312 C29.3636094,14.6579805 29.5159805,14.7555039 29.8759414,14.8992656 C30.350125,15.077168 30.5618711,15.3057617 30.5618711,15.6825703 C30.5618711,16.0425312 30.3120508,16.3600391 29.8462539,16.4362617 L29.8462539,16.8723711 L29.4990586,16.8723711" id="Fill-1344" fill="#FFCA10"></path>
                    <path d="M29.4492187,15.2273867 C29.3120078,15.17625 29.1918594,15.119918 29.09375,15.054457 L29.09375,15.9598516 C29.2010127,15.9972578 29.3208057,16.0285039 29.4492187,16.0465391 L29.4492187,15.2273867" id="Fill-1345" fill="#FF6C00"></path>
                    <path d="M29.09375,14.0110898 C29.1911484,13.9447383 29.3103193,13.8921914 29.4492187,13.8565664 L29.4492187,12.6850234 C29.3283594,12.6971211 29.2097217,12.7150078 29.09375,12.7389062 L29.09375,14.0110898" id="Fill-1346" fill="#FF6C00"></path>
                    <path d="M29.09375,16.3974453 L29.09375,17.5423438 C29.2097217,17.5662422 29.3283594,17.5841289 29.4492187,17.5962266 L29.4492187,16.4543711 C29.3248936,16.4441289 29.2040342,16.4241641 29.09375,16.3974453" id="Fill-1347" fill="#FF6C00"></path>
                    <path d="M29.09375,17.5423438 L29.09375,18.0498516 C29.2102549,18.0695937 29.3288926,18.0845859 29.4492187,18.0945312 L29.4492187,17.5962266 C29.3283594,17.5841289 29.2097217,17.5662422 29.09375,17.5423438" id="Fill-1348" fill="#FFA200"></path>
                    <path d="M29.4492187,15.2273867 L29.4492187,14.5971953 C29.427624,14.562832 29.4168711,14.5258711 29.4168711,14.4845313 C29.4168711,14.4442305 29.4271797,14.4034102 29.4492187,14.3653359 L29.4492187,13.8565664 C29.3103193,13.8921914 29.1911484,13.9447383 29.09375,14.0110898 L29.09375,15.054457 C29.1918594,15.119918 29.3120078,15.17625 29.4492187,15.2273867" id="Fill-1349" fill="#FFA200"></path>
                    <path d="M29.09375,15.9598516 L29.09375,16.4022949 C29.2040342,16.4293098 29.3248936,16.4494959 29.4492187,16.4598516 L29.4492187,16.0474998 C29.3208057,16.0292647 29.2010127,15.9976724 29.09375,15.9598516" id="Fill-1350" fill="#FFA200"></path>
                    <path d="M29.4492187,12.6850234 L29.4492187,12.1867187 C29.3288926,12.1966641 29.2102549,12.2116562 29.09375,12.2313984 L29.09375,12.7389062 C29.2097217,12.7150078 29.3283594,12.6971211 29.4492187,12.6850234" id="Fill-1351" fill="#FFA200"></path>
                    <path d="M36.5367031,11.1538906 C35.3774063,12.3132617 33.497668,12.3132617 32.3382969,11.1538906 C31.1789258,9.99451953 31.1789258,8.11485547 32.3382969,6.95548437 C33.497668,5.79611328 35.3774063,5.79611328 36.5367031,6.95548437 C37.6961484,8.11485547 37.6961484,9.99451953 36.5367031,11.1538906" id="Fill-1352" fill="#FFCA10"></path>
                    <path d="M36.1868359,10.8040234 C35.2207305,11.7702031 33.6542695,11.7702031 32.6881641,10.8040234 C31.7219844,9.83791797 31.7219844,8.27145703 32.6881641,7.30535156 C33.6542695,6.33917188 35.2207305,6.33917188 36.1868359,7.30535156 C37.1530156,8.27145703 37.1530156,9.83791797 36.1868359,10.8040234" id="Fill-1353" fill="#FFA200"></path>
                    <path d="M32.8366016,7.45378906 C33.7778437,6.51254687 35.2886406,6.48864844 36.2591992,7.38142578 C36.2355977,7.35574609 36.2117734,7.33021484 36.1868359,7.30535156 C35.2207305,6.33917187 33.6542695,6.33917187 32.6881641,7.30535156 C31.7219844,8.27145703 31.7219844,9.83791797 32.6881641,10.8040234 C32.7130273,10.8289609 32.7385586,10.8527852 32.7642383,10.8763867 C31.8715352,9.90575391 31.8953594,8.39503125 32.8366016,7.45378906" id="Fill-1354" fill="#FF6C00"></path>
                    <path d="M33.2281797,10.2944375 L33.5185234,10.0040937 C33.3359453,9.80926953 33.2012383,9.56687109 33.165168,9.38741016 L33.5275781,9.18664844 C33.575375,9.37241797 33.6802461,9.60271875 33.8629727,9.78544531 C34.0515625,9.97396094 34.2728828,10.0100312 34.416793,9.86619531 C34.5513516,9.73163672 34.5336875,9.53992969 34.3927461,9.23763672 C34.192207,8.80939453 34.1322383,8.46227344 34.4106328,8.18387891 C34.6683203,7.92619141 35.0453516,7.90823047 35.4016758,8.15678906 L35.6952109,7.86325391 L35.9406523,8.10876953 L35.6622578,8.38716406 C35.8449102,8.58198828 35.9287773,8.75551172 35.9765,8.89934766 L35.6204727,9.09380078 C35.5814336,8.98900391 35.5185703,8.78853906 35.3148398,8.58488281 C35.1053203,8.37536328 34.9227422,8.40824219 34.8208398,8.51014453 C34.6982305,8.63275391 34.7369727,8.80954297 34.8898633,9.16571875 C35.0993086,9.62683984 35.0874336,9.93811328 34.8209883,10.2046328 C34.566418,10.4591289 34.1653398,10.507 33.7820742,10.2315742 L33.4736211,10.5399531 L33.2281797,10.2944375" id="Fill-1355" fill="#FF6C00"></path>
                    <path d="M33.0797422,10.146 L33.3700859,9.85565625 C33.1875078,9.66083203 33.0528008,9.41843359 33.0167305,9.23897266 L33.3791406,9.03821094 C33.4269375,9.22398047 33.5318828,9.45428125 33.7145352,9.63700781 C33.903125,9.82552344 34.1245195,9.86159375 34.2682812,9.71775781 C34.4029141,9.58319922 34.3851758,9.39149219 34.2443086,9.08919922 C34.0437695,8.66095703 33.9838008,8.31383594 34.2621953,8.03544141 C34.5198828,7.77775391 34.8969141,7.75979297 35.2532383,8.00835156 L35.5467734,7.71481641 L35.7922148,7.96033203 L35.5138203,8.23872656 C35.6963984,8.43355078 35.7802656,8.60707422 35.8280625,8.75091016 L35.4720352,8.94536328 C35.4329961,8.84056641 35.3701328,8.64010156 35.1664766,8.43644531 C34.9568828,8.22692578 34.7743047,8.25980469 34.6724023,8.36170703 C34.549793,8.48431641 34.5885352,8.66110547 34.7413516,9.01728125 C34.9508711,9.47840234 34.9389961,9.78967578 34.6725508,10.0561953 C34.4180547,10.3106914 34.0168281,10.3585625 33.6336367,10.0831367 L33.3252578,10.3915156 L33.0797422,10.146" id="Fill-1356" fill="#FFCA10"></path>
                    <path d="M31.7867031,0.869546875 C32.9460742,2.02891797 32.9460742,3.90858203 31.7867031,5.06795312 C30.627332,6.22732422 28.747668,6.22732422 27.5882969,5.06795312 C26.4289258,3.90858203 26.4289258,2.02891797 27.5882969,0.869546875 C28.747668,-0.289824219 30.627332,-0.289824219 31.7867031,0.869546875" id="Fill-1357" fill="#FFCA10"></path>
                    <path d="M31.4369102,1.21941406 C32.4030156,2.18551953 32.4030156,3.75198047 31.4369102,4.71808594 C30.4707305,5.68426563 28.9043437,5.68426563 27.9381641,4.71808594 C26.9720586,3.75198047 26.9720586,2.18551953 27.9381641,1.21941406 C28.9043437,0.253234375 30.4707305,0.253234375 31.4369102,1.21941406" id="Fill-1358" fill="#FFA200"></path>
                    <path d="M28.0866016,1.36785156 C29.0278437,0.426609375 30.5386406,0.402710937 31.5091992,1.29548828 C31.4855977,1.26980859 31.4617734,1.24427734 31.4369102,1.21941406 C30.4707305,0.253234375 28.9043437,0.253234375 27.9381641,1.21941406 C26.9720586,2.18551953 26.9720586,3.75198047 27.9381641,4.71808594 C27.9630273,4.74302344 27.9885586,4.76684766 28.0142383,4.79044922 C27.1215352,3.81981641 27.1453594,2.30909375 28.0866016,1.36785156" id="Fill-1359" fill="#FF6C00"></path>
                    <path d="M30.92725,4.47494531 L30.6369062,4.18460156 C30.442082,4.36717969 30.1996836,4.50188672 30.0202227,4.53795703 L29.8194609,4.17554687 C30.0052305,4.12782422 30.2355312,4.02287891 30.4182578,3.84015234 C30.6067734,3.6515625 30.642918,3.43024219 30.499082,3.28640625 C30.3645234,3.15177344 30.1727422,3.16951172 29.8704492,3.31037891 C29.4422812,3.51091797 29.0950859,3.57088672 28.8166914,3.29249219 C28.5590039,3.03480469 28.541043,2.65777344 28.7896016,2.30144922 L28.4960664,2.00798828 L28.741582,1.76247266 L29.0199766,2.04086719 C29.2148008,1.85828906 29.3883242,1.77442187 29.5321602,1.726625 L29.7266133,2.08265234 C29.6218164,2.12169141 29.4214258,2.18455469 29.2176953,2.38828516 C29.0081758,2.59780469 29.0410547,2.78038281 29.142957,2.88228516 C29.2656406,3.00489453 29.4423555,2.96615234 29.7985312,2.81333594 C30.2596523,2.60381641 30.5709258,2.61569141 30.8374453,2.88213672 C31.0919414,3.13670703 31.1398867,3.53785938 30.8643867,3.92105078 L31.1727656,4.22950391 L30.92725,4.47494531" id="Fill-1360" fill="#FF6C00"></path>
                    <path d="M30.7788125,4.32650781 L30.4884687,4.03616406 C30.2937188,4.21874219 30.0512461,4.35344922 29.8717852,4.38951953 L29.6710234,4.02710937 C29.856793,3.97938672 30.0870937,3.87444141 30.2698203,3.69171484 C30.4583359,3.503125 30.4944062,3.28180469 30.3506445,3.13796875 C30.2160117,3.00333594 30.0243047,3.02107422 29.7220117,3.16194141 C29.2938437,3.36248047 28.9466484,3.42244922 28.6682539,3.14405469 C28.4105664,2.88636719 28.3926055,2.50933594 28.6411641,2.15301172 L28.3477031,1.85947656 L28.5931445,1.61403516 L28.8715391,1.89242969 C29.0663633,1.70985156 29.2398867,1.62598437 29.3837227,1.5781875 L29.5781758,1.93421484 C29.4733789,1.97325391 29.2729883,2.03611719 29.0692578,2.23984766 C28.8597383,2.44936719 28.8926172,2.63194531 28.9945195,2.73384766 C29.1171289,2.85645703 29.293918,2.81771484 29.6500937,2.66489844 C30.1112148,2.45537891 30.4224883,2.46725391 30.6890078,2.73369922 C30.9435039,2.98826953 30.991375,3.38942188 30.7159492,3.77261328 L31.0243281,4.08106641 L30.7788125,4.32650781" id="Fill-1361" fill="#FFCA10"></path>
                    <path d="M29.390625,32.0625 L18.109375,32.0625 C17.7814766,32.0625 17.515625,31.7966484 17.515625,31.46875 L17.515625,31.4544258 C17.515625,31.133207 17.7739062,30.875 18.0924531,30.875 L29.390625,30.875 C29.7185234,30.875 29.984375,31.1408516 29.984375,31.46875 C29.984375,31.7966484 29.7185234,32.0625 29.390625,32.0625" id="Fill-1362" fill="#008096"></path>
                    <path d="M24.046875,0 C24.046875,0.327898438 23.7810234,0.59375 23.453125,0.59375 C23.1252266,0.59375 22.859375,0.327898438 22.859375,0 L22.265625,0 C22.265625,0.327898438 21.9997734,0.59375 21.671875,0.59375 C21.3439766,0.59375 21.078125,0.327898438 21.078125,0 L20.484375,0 C20.484375,0.327898438 20.2185234,0.59375 19.890625,0.59375 C19.5627266,0.59375 19.296875,0.327898438 19.296875,0 L18.703125,0 C18.703125,0.327898438 18.4372734,0.59375 18.109375,0.59375 C17.7814766,0.59375 17.515625,0.327898438 17.515625,0 L16.921875,0 C16.921875,0.327898438 16.6560234,0.59375 16.328125,0.59375 C16.0002266,0.59375 15.734375,0.327898438 15.734375,0 L15.140625,0 C15.140625,0.327898438 14.8747734,0.59375 14.546875,0.59375 C14.2189766,0.59375 13.953125,0.327898438 13.953125,0 L13.65625,0 L13.65625,19 C13.65625,19.6558711 14.1878789,20.1875 14.84375,20.1875 L24.34375,20.1875 L24.34375,0 L24.046875,0" id="Fill-1363" fill="#E8ECF0"></path>
                    <path d="M23.15625,5.046875 L14.84375,5.046875 L14.84375,4.453125 L23.15625,4.453125 L23.15625,5.046875" id="Fill-1364" fill="#BFC2C8"></path>
                    <path d="M23.15625,6.53125 L14.84375,6.53125 L14.84375,5.9375 L23.15625,5.9375 L23.15625,6.53125" id="Fill-1365" fill="#BFC2C8"></path>
                    <path d="M20.78125,8.015625 L14.84375,8.015625 L14.84375,7.421875 L20.78125,7.421875 L20.78125,8.015625" id="Fill-1366" fill="#BFC2C8"></path>
                    <path d="M23.15625,10.984375 L14.84375,10.984375 L14.84375,10.390625 L23.15625,10.390625 L23.15625,10.984375" id="Fill-1367" fill="#BFC2C8"></path>
                    <path d="M23.15625,12.46875 L14.84375,12.46875 L14.84375,11.875 L23.15625,11.875 L23.15625,12.46875" id="Fill-1368" fill="#BFC2C8"></path>
                    <path d="M23.15625,13.953125 L14.84375,13.953125 L14.84375,13.359375 L23.15625,13.359375 L23.15625,13.953125" id="Fill-1369" fill="#BFC2C8"></path>
                    <path d="M23.15625,15.4375 L14.84375,15.4375 L14.84375,14.84375 L23.15625,14.84375 L23.15625,15.4375" id="Fill-1370" fill="#BFC2C8"></path>
                    <path d="M23.15625,16.921875 L14.84375,16.921875 L14.84375,16.328125 L23.15625,16.328125 L23.15625,16.921875" id="Fill-1371" fill="#BFC2C8"></path>
                    <path d="M23.15625,3.5625 L14.84375,3.5625 L14.84375,2.96875 L23.15625,2.96875 L23.15625,3.5625" id="Fill-1372" fill="#BFC2C8"></path>
                    <path d="M17.21875,9.203125 L18.40625,10.3903281 L18.40625,32.0625 L29.09375,32.0625 L29.09375,10.390625 C29.09375,9.73475391 28.5621211,9.203125 27.90625,9.203125 L17.21875,9.203125" id="Fill-1373" fill="#E8ECF0"></path>
                    <path d="M17.21875,9.203125 C16.5629531,9.203125 16.03125,9.73482812 16.03125,10.390625 L16.03125,19 C16.03125,19.6557969 15.4996211,20.1875 14.84375,20.1875 L18.40625,20.1875 L18.40625,10.390625 C18.40625,9.73482812 17.8746211,9.203125 17.21875,9.203125" id="Fill-1374" fill="#D8DBE1"></path>
                    <path d="M29.09375,32.0625 L18.40625,32.0625 L18.40625,31.46875 L29.09375,31.46875 L29.09375,32.0625" id="Fill-1375" fill="#BFC2C8"></path>
                    <path d="M25.53125,26.71875 L19.59375,26.71875 L19.59375,26.125 L25.53125,26.125 L25.53125,26.71875" id="Fill-1376" fill="#BFC2C8"></path>
                    <path d="M27.90625,25.234375 L19.59375,25.234375 L19.59375,24.640625 L27.90625,24.640625 L27.90625,25.234375" id="Fill-1377" fill="#BFC2C8"></path>
                    <path d="M27.90625,23.75 L19.59375,23.75 L19.59375,23.15625 L27.90625,23.15625 L27.90625,23.75" id="Fill-1378" fill="#BFC2C8"></path>
                    <path d="M27.90625,22.265625 L19.59375,22.265625 L19.59375,21.671875 L27.90625,21.671875 L27.90625,22.265625" id="Fill-1379" fill="#BFC2C8"></path>
                    <path d="M27.90625,20.78125 L19.59375,20.78125 L19.59375,20.1875 L27.90625,20.1875 L27.90625,20.78125" id="Fill-1380" fill="#BFC2C8"></path>
                    <path d="M23.15625,17.8125 L19.59375,17.8125 L19.59375,17.21875 L23.15625,17.21875 L23.15625,17.8125" id="Fill-1381" fill="#BFC2C8"></path>
                    <path d="M27.90625,16.328125 L19.59375,16.328125 L19.59375,15.734375 L27.90625,15.734375 L27.90625,16.328125" id="Fill-1382" fill="#BFC2C8"></path>
                    <path d="M25.53125,14.84375 L19.59375,14.84375 L19.59375,14.25 L25.53125,14.25 L25.53125,14.84375" id="Fill-1383" fill="#BFC2C8"></path>
                    <path d="M27.90625,13.359375 L19.59375,13.359375 L19.59375,12.765625 L27.90625,12.765625 L27.90625,13.359375" id="Fill-1384" fill="#BFC2C8"></path>
                </g>
            </g>
        </g>
    </g>
</svg>